<?xml version="1.0" encoding="UTF-8" standalone="no"?>
<svg
   enable-background="new 0 0 24 24"
   height="24"
   viewBox="0 0 24 24"
   width="24"
   fill="#ffffff"
   version="1.1"
   id="svg2"
   sodipodi:docname="person_add_alt_white_24dp.svg"
   xmlns:inkscape="http://www.inkscape.org/namespaces/inkscape"
   xmlns:sodipodi="http://sodipodi.sourceforge.net/DTD/sodipodi-0.dtd"
   xmlns="http://www.w3.org/2000/svg"
   xmlns:svg="http://www.w3.org/2000/svg">
  <defs
     id="defs2" />
  <sodipodi:namedview
     id="namedview2"
     pagecolor="#ffffff"
     bordercolor="#000000"
     borderopacity="0.25"
     inkscape:showpageshadow="2"
     inkscape:pageopacity="0.0"
     inkscape:pagecheckerboard="0"
     inkscape:deskcolor="#d1d1d1" />
  <g
     id="g1">
    <rect
       fill="none"
       height="24"
       width="24"
       id="rect1"
       x="0"
       y="0" />
  </g>
  <g
     id="g2"
     style="fill:#ff9800">
    <path
       d="M 13,8 C 13,5.79 11.21,4 9,4 6.79,4 5,5.79 5,8 c 0,2.21 1.79,4 4,4 2.21,0 4,-1.79 4,-4 z M 11,8 C 11,9.1 10.1,10 9,10 7.9,10 7,9.1 7,8 7,6.9 7.9,6 9,6 c 1.1,0 2,0.9 2,2 z M 1,18 v 2 h 16 v -2 c 0,-2.66 -5.33,-4 -8,-4 -2.67,0 -8,1.34 -8,4 z m 2,0 c 0.2,-0.71 3.3,-2 6,-2 2.69,0 5.78,1.28 6,2 z m 17,-3 v -3 h 3 V 10 H 20 V 7 h -2 v 3 h -3 v 2 h 3 v 3 z"
       id="path1"
       style="fill:#ff9800" />
  </g>
</svg>
