<?xml version="1.0" encoding="UTF-8" standalone="no"?>
<svg
   height="24"
   viewBox="0 0 24 24"
   width="24"
   fill="#ffffff"
   version="1.1"
   id="svg2"
   sodipodi:docname="shopping_cart_white_24dp.svg"
   inkscape:export-filename="shopping_cart_white_24dp.png"
   inkscape:export-xdpi="96"
   inkscape:export-ydpi="96"
   xmlns:inkscape="http://www.inkscape.org/namespaces/inkscape"
   xmlns:sodipodi="http://sodipodi.sourceforge.net/DTD/sodipodi-0.dtd"
   xmlns="http://www.w3.org/2000/svg"
   xmlns:svg="http://www.w3.org/2000/svg">
  <defs
     id="defs2" />
  <sodipodi:namedview
     id="namedview2"
     pagecolor="#ffffff"
     bordercolor="#000000"
     borderopacity="0.25"
     inkscape:showpageshadow="2"
     inkscape:pageopacity="0.0"
     inkscape:pagecheckerboard="0"
     inkscape:deskcolor="#d1d1d1" />
  <path
     d="M 0,0 H 24 V 24 H 0 Z"
     fill="none"
     id="path1" />
  <path
     d="m 7.36,17.73 c -1.1,0 -1.99,0.9 -1.99,2 0,1.1 0.89,2 1.99,2 1.1,0 2,-0.9 2,-2 0,-1.1 -0.9,-2 -2,-2 z m -6,-16 v 2 h 2 l 3.6,7.59 -1.35,2.45 c -0.16,0.28 -0.25,0.61 -0.25,0.96 0,1.1 0.9,2 2,2 h 12 v -2 H 7.78 c -0.14,0 -0.25,-0.11 -0.25,-0.25 l 0.03,-0.12 0.9,-1.63 h 7.45 c 0.75,0 1.41,-0.41 1.75,-1.03 l 3.58,-6.49 c 0.08,-0.14 0.12,-0.31 0.12,-0.48 0,-0.55 -0.45,-1 -1,-1 H 5.57 l -0.94,-2 z m 16,16 c -1.1,0 -1.99,0.9 -1.99,2 0,1.1 0.89,2 1.99,2 1.1,0 2,-0.9 2,-2 0,-1.1 -0.9,-2 -2,-2 z"
     id="path2"
     style="fill:#ff9800;fill-opacity:1" />
</svg>
